<?xml version="1.0" standalone="no"?>
<!DOCTYPE svg PUBLIC "-//W3C//DTD SVG 20010904//EN"
 "http://www.w3.org/TR/2001/REC-SVG-20010904/DTD/svg10.dtd">
<svg version="1.0" xmlns="http://www.w3.org/2000/svg"
 width="2000.000000pt" height="2000.000000pt" viewBox="0 0 2000.000000 2000.000000"
 preserveAspectRatio="xMidYMid meet">

<g transform="translate(0.000000,2000.000000) scale(0.100000,-0.100000)"
fill="#000000" stroke="none">
<path d="M0 10000 l0 -10000 10000 0 10000 0 0 10000 0 10000 -10000 0 -10000
0 0 -10000z m7721 4600 c241 -19 568 -74 805 -136 507 -131 928 -393 1222
-761 41 -51 107 -117 154 -155 98 -78 260 -244 340 -348 230 -304 389 -685
465 -1115 14 -78 17 -157 17 -365 0 -250 -1 -272 -27 -392 -59 -275 -151 -495
-302 -723 -198 -296 -457 -538 -885 -822 -119 -79 -558 -351 -607 -377 -54
-27 -94 4 352 -271 127 -78 340 -206 474 -284 134 -77 272 -161 306 -186 152
-108 258 -218 325 -338 27 -47 47 -68 122 -119 225 -154 374 -344 424 -541 38
-147 16 -371 -51 -522 -92 -208 -295 -403 -503 -484 -250 -96 -497 -78 -852
61 -350 138 -586 273 -1915 1088 -275 169 -581 354 -680 411 -175 100 -645
342 -652 335 -5 -5 -46 -385 -88 -821 -71 -730 -100 -894 -192 -1079 -147
-296 -412 -442 -724 -397 -243 36 -443 191 -550 426 -25 56 -32 63 -76 80
-236 90 -402 310 -468 620 -18 84 -50 517 -66 890 -15 342 -15 1261 0 1595 33
744 81 1315 171 2057 78 633 262 1748 325 1968 38 132 105 263 170 333 111
120 235 174 400 174 117 0 202 -17 375 -74 122 -39 128 -40 225 -35 106 6 140
16 422 116 282 100 641 171 983 194 114 8 439 6 561 -3z m6121 -2061 c512 -72
1017 -305 1410 -651 118 -104 223 -211 295 -300 34 -43 101 -111 150 -151 443
-372 675 -812 675 -1276 -1 -80 -7 -173 -17 -226 -79 -442 -393 -818 -851
-1019 -175 -77 -496 -170 -744 -216 -63 -11 -140 -26 -170 -32 l-55 -11 100
-28 c288 -83 480 -252 522 -460 4 -22 17 -31 74 -54 132 -51 249 -142 319
-247 108 -162 108 -385 -1 -574 -125 -219 -416 -437 -719 -538 -138 -46 -216
-56 -511 -63 -335 -8 -533 11 -819 78 -358 84 -685 242 -950 457 -89 72 -258
242 -327 329 -27 34 -85 90 -128 124 -238 185 -473 483 -610 774 -173 365
-244 728 -232 1180 22 831 254 1582 657 2123 83 112 290 319 404 403 448 335
950 459 1528 378z"/>
<path d="M7730 12684 c-367 -31 -673 -133 -943 -314 -229 -153 -357 -341 -412
-607 -17 -81 -37 -408 -28 -456 6 -33 -1 -33 226 19 581 133 1101 353 1587
672 169 111 288 223 338 318 34 65 62 166 62 225 0 36 -1 37 -57 52 -94 26
-235 56 -340 72 -100 15 -353 26 -433 19z"/>
<path d="M14077 10744 c-82 -15 -200 -59 -252 -95 l-30 -20 70 7 c39 4 198 21
355 39 l285 31 -55 17 c-124 37 -245 44 -373 21z"/>
</g>
</svg>
